/* XPM */
static char *_4338aacd0294bfececbb73b5845bfe8[] = {
/* columns rows colors chars-per-pixel */
"64 64 41 1 ",
"  c black",
". c #2C2302",
"X c #332803",
"o c #342903",
"O c #382C03",
"+ c #3A2E03",
"@ c #3B2F03",
"# c #3D3003",
"$ c #3E3103",
"% c #403204",
"& c #413304",
"* c #443604",
"= c #463704",
"- c #473804",
"; c #493A04",
": c #4A3A04",
"> c #4B3B04",
", c #4E3D04",
"< c #4F3E04",
"1 c #534105",
"2 c #554305",
"3 c #594605",
"4 c #5E4A05",
"5 c #624D05",
"6 c #634E05",
"7 c #675106",
"8 c #685206",
"9 c #6B5406",
"0 c #725A06",
"q c #7B6107",
"w c #7F6407",
"e c #8B6E08",
"r c #8F7108",
"t c #9F7D09",
"y c #AF8A0A",
"u c #BF970A",
"i c #CFA30B",
"p c #DFB00C",
"a c #EFBC0D",
"s c #FFC90E",
"d c None",
/* pixels */
"dddddddddddddddddddddddddddddddddddddddddddddddddddddddddddddddd",
"ddddddddddddddddddddddddd&54wtuuuuuw04-;dddddddddddddddddddddddd",
"ddddddddddddddddddddd;=qusssssssssssssspr3Oddddddddddddddddddddd",
"ddddddddddddddddddd-9pssssssssssssssssssssar-ddddddddddddddddddd",
"dddddddddddddddddOtassssssssssssssssssssssssst=ddddddddddddddddd",
"ddddddddddddddd&qasssssssssssssssssssssssssssssr@ddddddddddddddd",
"dddddddddddddd<pssssssssssssssssssssssssssssssssa1dddddddddddddd",
"dddddddddddd;qssssssssssssssssssssssssssssssssssssrOdddddddddddd",
"ddddddddddd&yssssssssssssssssssssssssssssssssssssssi&ddddddddddd",
"dddddddddd1issssssssssssssssssssssssssssssssssssssssi.dddddddddd",
"ddddddddd1issssssssssssssssssssssssssssssssssssssssssi.ddddddddd",
"dddddddd&issssssssssssssssssssssssssssssssssssssssssssi-dddddddd",
"ddddddd;yssssssssssssssssssssssssssssssssssssssssssssssu-ddddddd",
"dddddddqssssssssssssssssssssssssssssssssssssssssssssssssqddddddd",
"dddddd&ssssssssssssssssssssssssssssssssssssssssssssssssss1dddddd",
"ddddd&pssssssssssssssssssssssssssssssssssssssssssssssssssp&ddddd",
"dddddqssssssssssssssssssssssssssssssssssssssssssssssssssssqddddd",
"ddddOassssssssssssssssssssssssssssssssssssssssssssssssssssa.dddd",
"ddddtssssssssssssssssssssssssspuupsssssssssssssssssssssir;&ddddd",
"ddd-asssssssssssssssssssssar3-#dd#&3rassssssssssssspr4->dddddddd",
"ddd9ssssssssssssssssssssaq;dddddddddd-qasssssssat5<;dddddddddddd",
"dd;psssssssssssssssssssi#dddddddddddddd#isssy71=dddddddddddddddd",
"dd;sssssssssssssssssssi&dddddddddddddddd&q3&dddddddddddddddddddd",
"ddqssssssssssssssssssi-ddddddddddddddddddddddddddddddddddddddddd",
"d;isssssssssssssssssa;dddddddddddddddddddddddddddddddddddddddddd",
"d-ssssssssssssssssssqddddddddddddddddddddddddddddddddddddddddddd",
"d8sssssssssssssssssa-dddddddd      ddddddddddddddddddddddddddddd",
"d4ssssssssssssssssstdddddddd        dddddddddddddddddddddddddddd",
"dwsssssssssssssssss4ddddddd          ddddddddddddddddddddddddddd",
"dysssssssssssssssss-dddddd            dddddddddddddddddddddddddd",
"dusssssssssssssssss#dddddd            dddddddddddddddddddddd;&=d",
"dussssssssssssssssuddddddd            ddddddddddddddddddd&4risud",
"dussssssssssssssssiddddddd            ddddddddddddddd&3qusssssud",
"dusssssssssssssssss#dddddd            ddddddddddd=17yassssssssud",
"dysssssssssssssssss-dddddd            ddddddd;<5tassssssssssssyd",
"dwsssssssssssssssss5ddddddd          ddddddd<psssssssssssssssswd",
"d4ssssssssssssssssstdddddddd        ddddddddtsssssssssssssssss4d",
"d8sssssssssssssssssa-dddddddd      dddddddd-asssssssssssssssss8d",
"d-ssssssssssssssssssqddddddddddddddddddddddqssssssssssssssssss-d",
"d>issssssssssssssssss&dddddddddddddddddddd&ssssssssssssssssssi;d",
"ddesssssssssssssssssspOddddddddddddddddddOpssssssssssssssssssedd",
"dd;sssssssssssssssssssiOddddddddddddddddOisssssssssssssssssss;dd",
"dd1psssssssssssssssssssp&dddddddddddddd&psssssssssssssssssssp1dd",
"dddqsssssssssssssssssssssrOddddddddddorsssssssssssssssssssssqddd",
"ddd&ssssssssssssssssssssssst1-=Xo=-1tsssssssssssssssssssssss&ddd",
"ddddtsssssssssssssssssssssssssssssssssssssssssssssssssssssstdddd",
"dddd-assssssssssssssssssssssssssssssssssssssssssssssssssssa=dddd",
"dddddqssssssssssssssssssssssssssssssssssssssssssssssssssssqddddd",
"ddddd1pssssssssssssssssssssssssssssssssssssssssssssssssssp<ddddd",
"dddddd1ssssssssssssssssssssssssssssssssssssssssssssssssss1dddddd",
"dddddddqssssssssssssssssssssssssssssssssssssssssssssssssqddddddd",
"ddddddd=yssssssssssssssssssssssssssssssssssssssssssssssy#ddddddd",
"dddddddd-issssssssssssssssssssssssssssssssssssssssssssi-dddddddd",
"ddddddddd.issssssssssssssssssssssssssssssssssssssssssiOddddddddd",
"ddddddddddOissssssssssssssssssssssssssssssssssssssssi.dddddddddd",
"ddddddddddd-yssssssssssssssssssssssssssssssssssssssy-ddddddddddd",
"dddddddddddd-qssssssssssssssssssssssssssssssssssssq=dddddddddddd",
"dddddddddddddd1pssssssssssssssssssssssssssssssssp=dddddddddddddd",
"ddddddddddddddd<qassssssssssssssssssssssssssssaq1ddddddddddddddd",
"ddddddddddddddddd=tsssssssssssssssssssssssssst=ddddddddddddddddd",
"ddddddddddddddddddd&qpsssssssssssssssssssspq&ddddddddddddddddddd",
"ddddddddddddddddddddd1;eissssssssssssssie;1ddddddddddddddddddddd",
"dddddddddddddddddddddddd<O85wyuuuuye48-;dddddddddddddddddddddddd",
"dddddddddddddddddddddddddddddddddddddddddddddddddddddddddddddddd"
};
