/* XPM */
static char *_278ad67f0854106de8d35300d4fb3cc[] = {
/* columns rows colors chars-per-pixel */
"32 32 32 1 ",
"  c black",
". c #685206",
"X c #6C5506",
"o c #725A06",
"O c #735B06",
"+ c #745B06",
"@ c #785F07",
"# c #7B6107",
"$ c #7D6307",
"% c #826607",
"& c #866A07",
"* c #8D6F08",
"= c #8E7008",
"- c #937408",
"; c #947508",
": c #977708",
"> c #997908",
", c #9A7908",
"< c #9B7A09",
"1 c #9F7D09",
"2 c #A48109",
"3 c #A88409",
"4 c #AC8809",
"5 c #AF8A0A",
"6 c #B18C0A",
"7 c #BC940A",
"8 c #BF970A",
"9 c #CFA30B",
"0 c #DFB00C",
"q c #EFBC0D",
"w c #FFC90E",
"e c None",
/* pixels */
"eeeeeeeeeeeO;657856*.eeeeeeeeeee",
"eeeeeeeee>5wwwwwwwwwq4+eeeeeeeee",
"eeeeeee@0wwwwwwwwwwwwww4Xeeeeeee",
"eeeeee<wwwwwwwwwwwwwwwwwq@eeeeee",
"eeeeO7wwwwwwwwwwwwwwwwwwww%eeeee",
"eeee7wwwwwwwwwwwwwwwwwwwwww%eeee",
"eee<wwwwwwwwwwwwwwwwwwwwwwwq#eee",
"ee@wwwwwwwwwwwwwwwwwwwwwwwww9eee",
"ee0wwwwwwwwwwwwwwwwwwwwwwwww0@ee",
"e<wwwwwwwwwwq3*<<;5wwwwwq51$eeee",
"e7wwwwwwwww5Oeeeeee#q72#eeeeeeee",
"+wwwwwwwww4eeeeeeeeeeeeeeeeeeeee",
";wwwwwwwwqOeeee eeeeeeeeeeeeeeee",
"6wwwwwwww3eee     eeeeeeeeeeeeee",
"5wwwwwwww*eee      eeeeeeeeeeeee",
"8wwwwwwww<ee       eeeeeeeee&15&",
"8wwwwwwww>eee      eeeee$<5qwww:",
"3wwwwwwww<eee      eee;0wwwwwww&",
"6wwwwwwww7eeee    eee+wwwwwwwwwe",
"*wwwwwwwww#eeeeeeeeee7wwwwwwww9e",
".qwwwwwwwwqOeeeeeeee5wwwwwwwww3e",
"e5wwwwwwwwwq;.eeee+7wwwwwwwwww+e",
"e+wwwwwwwwwwwq8;79wwwwwwwwwww8ee",
"ee3wwwwwwwwwwwwwwwwwwwwwwwwww#ee",
"eeXqwwwwwwwwwwwwwwwwwwwwwwww<eee",
"eee#wwwwwwwwwwwwwwwwwwwwwww9eeee",
"eeee%wwwwwwwwwwwwwwwwwwwww9Oeeee",
"eeeee%qwwwwwwwwwwwwwwwwww9Oeeeee",
"eeeeee#9wwwwwwwwwwwwwwww<eeeeeee",
"eeeeeeee=0wwwwwwwwwwww8#eeeeeeee",
"eeeeeeeeee-5qwwwwww93+eeeeeeeeee",
"eeeeeeeeeeeee$>>><.eeeeeeeeeeeee"
};
