/* XPM */
static char *_c7eb4981ce549369748b191d298fd1b[] = {
/* columns rows colors chars-per-pixel */
"16 16 18 1 ",
"  c black",
". c #7D6307",
"X c #866A07",
"o c #876A07",
"O c #917208",
"+ c #997908",
"@ c #A07E09",
"# c #A68309",
"$ c #B18C0A",
"% c #B58F0A",
"& c #B9920A",
"* c #BF970A",
"= c #CFA30B",
"- c #DDAE0C",
"; c #DFB00C",
": c #EFBC0D",
"> c #FFC90E",
", c None",
/* pixels */
",,,,,,+@#+,,,,,,",
",,,,$:>>>>>&,,,,",
",,,->>>>>>>>;,,,",
",,->>>>>>>>>>-,,",
",$>>>>>=*:>>>;.,",
",;>>>:+,,O%#o,,,",
"o>>>>@,,,,,,,,,,",
"+>>>:,,  ,,,,,,o",
"+>>>:,,  ,,o$=>$",
"o>>>>@,,,,O>>>>+",
",;>>>:@,,O->>>>o",
",$>>>>>;*>>>>>&,",
",,->>>>>>>>>>:,,",
",,,->>>>>>>>:,,,",
",,,,$:>>>>>&,,,,",
",,,,,,+@#+,,,,,,"
};
