/* XPM */
static char *c7f065ff670843e59c8f5fa49d705bbe[] = {
/* columns rows colors chars-per-pixel */
"128 128 47 1 ",
"  c black",
". c #2A2102",
"X c #2C2302",
"o c #332803",
"O c #342903",
"+ c #352A03",
"@ c #362B03",
"# c #382C03",
"$ c #3A2E03",
"% c #3B2F03",
"& c #3D3003",
"* c #3E3103",
"= c #403204",
"- c #413304",
"; c #443604",
": c #463704",
"> c #473804",
", c #483904",
"< c #493A04",
"1 c #4A3A04",
"2 c #4B3B04",
"3 c #4E3D04",
"4 c #4F3E04",
"5 c #534105",
"6 c #574505",
"7 c #594605",
"8 c #5E4A05",
"9 c #624D05",
"0 c #634E05",
"q c #675106",
"w c #685206",
"e c #6B5406",
"r c #6D5606",
"t c #725A06",
"y c #775E07",
"u c #7B6107",
"i c #7F6407",
"p c #8B6E08",
"a c #8F7108",
"s c #9F7D09",
"d c #AF8A0A",
"f c #BF970A",
"g c #CFA30B",
"h c #DFB00C",
"j c #EFBC0D",
"k c #FFC90E",
"l c None",
/* pixels */
"llllllllllllllllllllllllllllllllllllllllllllllllllllllllllllllllllllllllllllllllllllllllllllllllllllllllllllllllllllllllllllllll",
"llllllllllllllllllllllllllllllllllllllllllllllllllllll>>w4tisfffffffair40>&lllllllllllllllllllllllllllllllllllllllllllllllllllll",
"lllllllllllllllllllllllllllllllllllllllllllllllll;50sfkkkkkkkkkkkkkkkkkkkkjfi842llllllllllllllllllllllllllllllllllllllllllllllll",
"lllllllllllllllllllllllllllllllllllllllllllll250djkkkkkkkkkkkkkkkkkkkkkkkkkkkkkhs0=lllllllllllllllllllllllllllllllllllllllllllll",
"llllllllllllllllllllllllllllllllllllllllll22ahkkkkkkkkkkkkkkkkkkkkkkkkkkkkkkkkkkkkkdq>llllllllllllllllllllllllllllllllllllllllll",
"llllllllllllllllllllllllllllllllllllllll4ehkkkkkkkkkkkkkkkkkkkkkkkkkkkkkkkkkkkkkkkkkkks45lllllllllllllllllllllllllllllllllllllll",
"lllllllllllllllllllllllllllllllllllll24skkkkkkkkkkkkkkkkkkkkkkkkkkkkkkkkkkkkkkkkkkkkkkkkh6>lllllllllllllllllllllllllllllllllllll",
"lllllllllllllllllllllllllllllllllll;2fkkkkkkkkkkkkkkkkkkkkkkkkkkkkkkkkkkkkkkkkkkkkkkkkkkkkju>lllllllllllllllllllllllllllllllllll",
"lllllllllllllllllllllllllllllllll2=fkkkkkkkkkkkkkkkkkkkkkkkkkkkkkkkkkkkkkkkkkkkkkkkkkkkkkkkkjuOlllllllllllllllllllllllllllllllll",
"llllllllllllllllllllllllllllllll=fkkkkkkkkkkkkkkkkkkkkkkkkkkkkkkkkkkkkkkkkkkkkkkkkkkkkkkkkkkkkh6&lllllllllllllllllllllllllllllll",
"llllllllllllllllllllllllllllll%akkkkkkkkkkkkkkkkkkkkkkkkkkkkkkkkkkkkkkkkkkkkkkkkkkkkkkkkkkkkkkkkf&llllllllllllllllllllllllllllll",
"lllllllllllllllllllllllllllll6jkkkkkkkkkkkkkkkkkkkkkkkkkkkkkkkkkkkkkkkkkkkkkkkkkkkkkkkkkkkkkkkkkkku>llllllllllllllllllllllllllll",
"lllllllllllllllllllllllllll%dkkkkkkkkkkkkkkkkkkkkkkkkkkkkkkkkkkkkkkkkkkkkkkkkkkkkkkkkkkkkkkkkkkkkkkg&lllllllllllllllllllllllllll",
"llllllllllllllllllllllllll;hkkkkkkkkkkkkkkkkkkkkkkkkkkkkkkkkkkkkkkkkkkkkkkkkkkkkkkkkkkkkkkkkkkkkkkkkjqllllllllllllllllllllllllll",
"llllllllllllllllllllllll2ekkkkkkkkkkkkkkkkkkkkkkkkkkkkkkkkkkkkkkkkkkkkkkkkkkkkkkkkkkkkkkkkkkkkkkkkkkkks$llllllllllllllllllllllll",
"lllllllllllllllllllllll%skkkkkkkkkkkkkkkkkkkkkkkkkkkkkkkkkkkkkkkkkkkkkkkkkkkkkkkkkkkkkkkkkkkkkkkkkkkkkkg$lllllllllllllllllllllll",
"llllllllllllllllllllll%gkkkkkkkkkkkkkkkkkkkkkkkkkkkkkkkkkkkkkkkkkkkkkkkkkkkkkkkkkkkkkkkkkkkkkkkkkkkkkkkkh2llllllllllllllllllllll",
"lllllllllllllllllllll;gkkkkkkkkkkkkkkkkkkkkkkkkkkkkkkkkkkkkkkkkkkkkkkkkkkkkkkkkkkkkkkkkkkkkkkkkkkkkkkkkkkj@lllllllllllllllllllll",
"llllllllllllllllllll5jkkkkkkkkkkkkkkkkkkkkkkkkkkkkkkkkkkkkkkkkkkkkkkkkkkkkkkkkkkkkkkkkkkkkkkkkkkkkkkkkkkkkj@llllllllllllllllllll",
"lllllllllllllllllll5jkkkkkkkkkkkkkkkkkkkkkkkkkkkkkkkkkkkkkkkkkkkkkkkkkkkkkkkkkkkkkkkkkkkkkkkkkkkkkkkkkkkkkkj@lllllllllllllllllll",
"llllllllllllllllll5jkkkkkkkkkkkkkkkkkkkkkkkkkkkkkkkkkkkkkkkkkkkkkkkkkkkkkkkkkkkkkkkkkkkkkkkkkkkkkkkkkkkkkkkkjOllllllllllllllllll",
"lllllllllllllllll;jkkkkkkkkkkkkkkkkkkkkkkkkkkkkkkkkkkkkkkkkkkkkkkkkkkkkkkkkkkkkkkkkkkkkkkkkkkkkkkkkkkkkkkkkkkj5lllllllllllllllll",
"llllllllllllllll%gkkkkkkkkkkkkkkkkkkkkkkkkkkkkkkkkkkkkkkkkkkkkkkkkkkkkkkkkkkkkkkkkkkkkkkkkkkkkkkkkkkkkkkkkkkkkj$llllllllllllllll",
"lllllllllllllll%gkkkkkkkkkkkkkkkkkkkkkkkkkkkkkkkkkkkkkkkkkkkkkkkkkkkkkkkkkkkkkkkkkkkkkkkkkkkkkkkkkkkkkkkkkkkkkkg>lllllllllllllll",
"llllllllllllll2skkkkkkkkkkkkkkkkkkkkkkkkkkkkkkkkkkkkkkkkkkkkkkkkkkkkkkkkkkkkkkkkkkkkkkkkkkkkkkkkkkkkkkkkkkkkkkkkd&llllllllllllll",
"llllllllllllllekkkkkkkkkkkkkkkkkkkkkkkkkkkkkkkkkkkkkkkkkkkkkkkkkkkkkkkkkkkkkkkkkkkkkkkkkkkkkkkkkkkkkkkkkkkkkkkkkkullllllllllllll",
"lllllllllllll;kkkkkkkkkkkkkkkkkkkkkkkkkkkkkkkkkkkkkkkkkkkkkkkkkkkkkkkkkkkkkkkkkkkkkkkkkkkkkkkkkkkkkkkkkkkkkkkkkkkk;lllllllllllll",
"llllllllllll%hkkkkkkkkkkkkkkkkkkkkkkkkkkkkkkkkkkkkkkkkkkkkkkkkkkkkkkkkkkkkkkkkkkkkkkkkkkkkkkkkkkkkkkkkkkkkkkkkkkkkj=llllllllllll",
"lllllllllllldkkkkkkkkkkkkkkkkkkkkkkkkkkkkkkkkkkkkkkkkkkkkkkkkkkkkkkkkkkkkkkkkkkkkkkkkkkkkkkkkkkkkkkkkkkkkkkkkkkkkkkd&lllllllllll",
"lllllllllll6kkkkkkkkkkkkkkkkkkkkkkkkkkkkkkkkkkkkkkkkkkkkkkkkkkkkkkkkkkkkkkkkkkkkkkkkkkkkkkkkkkkkkkkkkkkkkkkkkkkkkkkk7lllllllllll",
"llllllllll%jkkkkkkkkkkkkkkkkkkkkkkkkkkkkkkkkkkkkkkkkkkkkkkkkkkkkkkkkkkkkkkkkkkkkkkkkkkkkkkkkkkkkkkkkkkkkkkkkkkkkkkkkj$llllllllll",
"llllllllllakkkkkkkkkkkkkkkkkkkkkkkkkkkkkkkkkkkkkkkkkkkkkkkkkkkkkkkkkkkkkkkkkkkkkkkkkkkkkkkkkkkkkkkkkkkkkkkkkkkkkkkkkkallllllllll",
"lllllllll=kkkkkkkkkkkkkkkkkkkkkkkkkkkkkkkkkkkkkkkkkkkkkkkkkkkkkkkkkkkkkkkkkkkkkkkkkkkkkkkkkkkkkkkkkkkkkkkkkkkkkkkkkkkk&lllllllll",
"llllllll*fkkkkkkkkkkkkkkkkkkkkkkkkkkkkkkkkkkkkkkkkkkkkkkkkkkkkkkkkkkkkkkkkkkkkkkkkkkkkkkkkkkkkkkkkkkkkkkkkkkkkkkkkkkkkf&llllllll",
"llllllll;kkkkkkkkkkkkkkkkkkkkkkkkkkkkkkkkkkkkkkkkkkkkkkkkkkkkkkkkkkkkkkkkkkkkkkkkkkkkkkkkkkkkkkkkkkkkkkkkkkkkkkkkkkkkkk2llllllll",
"lllllll;hkkkkkkkkkkkkkkkkkkkkkkkkkkkkkkkkkkkkkkkkkkkkkkkkkkkkkkkkkkkkkkkkkkkkkkkkkkkkkkkkkkkkkkkkkkkkkkkkkkkkkkkkkkkkjd6llllllll",
"lllllllqkkkkkkkkkkkkkkkkkkkkkkkkkkkkkkkkkkkkkkkkkkkkkkkkkkkkkkkkkkkkkkkkkkkkkkkkkkkkkkkkkkkkkkkkkkkkkkkkkkkkkkkkkkfi2$llllllllll",
"llllll2fkkkkkkkkkkkkkkkkkkkkkkkkkkkkkkkkkkkkkkkkkkkkkkkkkkkgduyrryidgkkkkkkkkkkkkkkkkkkkkkkkkkkkkkkkkkkkkkkkkkga8&llllllllllllll",
"llllll4kkkkkkkkkkkkkkkkkkkkkkkkkkkkkkkkkkkkkkkkkkkkkkkkgu7=4llllllll2=7ugkkkkkkkkkkkkkkkkkkkkkkkkkkkkkkkkkhs5>2lllllllllllllllll",
"lllllldkkkkkkkkkkkkkkkkkkkkkkkkkkkkkkkkkkkkkkkkkkkkkjs;2llllllllllllllll6;sjkkkkkkkkkkkkkkkkkkkkkkkkkkjdq42lllllllllllllllllllll",
"lllll;kkkkkkkkkkkkkkkkkkkkkkkkkkkkkkkkkkkkkkkkkkkkku2llllllllllllllllllllll>ukkkkkkkkkkkkkkkkkkkkkkdq5>lllllllllllllllllllllllll",
"lllllukkkkkkkkkkkkkkkkkkkkkkkkkkkkkkkkkkkkkkkkkkkf;llllllllllllllllllllllllll2fkkkkkkkkkkkkkkkkgu7=lllllllllllllllllllllllllllll",
"llll>hkkkkkkkkkkkkkkkkkkkkkkkkkkkkkkkkkkkkkkkkkju*llllllllllllllllllllllllllll&ijkkkkkkkkkkga8>2llllllllllllllllllllllllllllllll",
"llll2kkkkkkkkkkkkkkkkkkkkkkkkkkkkkkkkkkkkkkkkkj=llllllllllllllllllllllllllllllll4jkkkkkhs042llllllllllllllllllllllllllllllllllll",
"llllskkkkkkkkkkkkkkkkkkkkkkkkkkkkkkkkkkkkkkkkgXllllllllllllllllllllllllllllllllllXgjdq55llllllllllllllllllllllllllllllllllllllll",
"lll;hkkkkkkkkkkkkkkkkkkkkkkkkkkkkkkkkkkkkkkkgXllllllllllllllllllllllllllllllllllll.$llllllllllllllllllllllllllllllllllllllllllll",
"lll2kkkkkkkkkkkkkkkkkkkkkkkkkkkkkkkkkkkkkkkjXlllllllllllllllllllllllllllllllllllllllllllllllllllllllllllllllllllllllllllllllllll",
"lllukkkkkkkkkkkkkkkkkkkkkkkkkkkkkkkkkkkkkkk;llllllllllllllllllllllllllllllllllllllllllllllllllllllllllllllllllllllllllllllllllll",
"lllfkkkkkkkkkkkkkkkkkkkkkkkkkkkkkkkkkkkkkkelllllllllllllllllllllllllllllllllllllllllllllllllllllllllllllllllllllllllllllllllllll",
"ll=kkkkkkkkkkkkkkkkkkkkkkkkkkkkkkkkkkkkkkf*lllllllllllllllllllllllllllllllllllllllllllllllllllllllllllllllllllllllllllllllllllll",
"ll7kkkkkkkkkkkkkkkkkkkkkkkkkkkkkkkkkkkkkk*llllllllllllllllllllllllllllllllllllllllllllllllllllllllllllllllllllllllllllllllllllll",
"llykkkkkkkkkkkkkkkkkkkkkkkkkkkkkkkkkkkkkslllllllllllllllllllll    llllllllllllllllllllllllllllllllllllllllllllllllllllllllllllll",
"lldkkkkkkkkkkkkkkkkkkkkkkkkkkkkkkkkkkkkk;llllllllllllllllll          lllllllllllllllllllllllllllllllllllllllllllllllllllllllllll",
"l2gkkkkkkkkkkkkkkkkkkkkkkkkkkkkkkkkkkkkslllllllllllllllll              lllllllllllllllllllllllllllllllllllllllllllllllllllllllll",
"l4kkkkkkkkkkkkkkkkkkkkkkkkkkkkkkkkkkkkk2llllllllllllllll                llllllllllllllllllllllllllllllllllllllllllllllllllllllll",
"l>kkkkkkkkkkkkkkkkkkkkkkkkkkkkkkkkkkkkh5lllllllllllllll                  lllllllllllllllllllllllllllllllllllllllllllllllllllllll",
"lrkkkkkkkkkkkkkkkkkkkkkkkkkkkkkkkkkkkkalllllllllllllll                    llllllllllllllllllllllllllllllllllllllllllllllllllllll",
"l8kkkkkkkkkkkkkkkkkkkkkkkkkkkkkkkkkkkk8llllllllllllll                      lllllllllllllllllllllllllllllllllllllllllllllllllllll",
"lukkkkkkkkkkkkkkkkkkkkkkkkkkkkkkkkkkkk>llllllllllllll                      lllllllllllllllllllllllllllllllllllllllllllllllllllll",
"likkkkkkkkkkkkkkkkkkkkkkkkkkkkkkkkkkkh2lllllllllllll                        llllllllllllllllllllllllllllllllllllllllllllllllllll",
"ldkkkkkkkkkkkkkkkkkkkkkkkkkkkkkkkkkkkfllllllllllllll                        lllllllllllllllllllllllllllllllllllllllllllllllll>;l",
"lfkkkkkkkkkkkkkkkkkkkkkkkkkkkkkkkkkkksllllllllllllll                        lllllllllllllllllllllllllllllllllllllllllllll240sjfl",
"lfkkkkkkkkkkkkkkkkkkkkkkkkkkkkkkkkkkkplllllllllllll                          llllllllllllllllllllllllllllllllllllllll2>8ahkkkkfl",
"lfkkkkkkkkkkkkkkkkkkkkkkkkkkkkkkkkkkkulllllllllllll                          lllllllllllllllllllllllllllllllllllll=7agkkkkkkkkfl",
"lfkkkkkkkkkkkkkkkkkkkkkkkkkkkkkkkkkkkilllllllllllll                          lllllllllllllllllllllllllllllllll;;rfkkkkkkkkkkkkfl",
"lfkkkkkkkkkkkkkkkkkkkkkkkkkkkkkkkkkkkilllllllllllll                          lllllllllllllllllllllllllllll25qdjkkkkkkkkkkkkkkkfl",
"lfkkkkkkkkkkkkkkkkkkkkkkkkkkkkkkkkkkkdllllllllllllll                        llllllllllllllllllllllllll2=0shkkkkkkkkkkkkkkkkkkkfl",
"ldkkkkkkkkkkkkkkkkkkkkkkkkkkkkkkkkkkkfllllllllllllll                        lllllllllllllllllllllll28agkkkkkkkkkkkkkkkkkkkkkkkfl",
"likkkkkkkkkkkkkkkkkkkkkkkkkkkkkkkkkkkj&lllllllllllll                        lllllllllllllllllll=7ufkkkkkkkkkkkkkkkkkkkkkkkkkkkil",
"lukkkkkkkkkkkkkkkkkkkkkkkkkkkkkkkkkkkk4llllllllllllll                      llllllllllllllll>5qdjkkkkkkkkkkkkkkkkkkkkkkkkkkkkkkul",
"l8kkkkkkkkkkkkkkkkkkkkkkkkkkkkkkkkkkkk0llllllllllllll                      llllllllllllll&sjkkkkkkkkkkkkkkkkkkkkkkkkkkkkkkkkkk8l",
"lrkkkkkkkkkkkkkkkkkkkkkkkkkkkkkkkkkkkkslllllllllllllll                    lllllllllllllllskkkkkkkkkkkkkkkkkkkkkkkkkkkkkkkkkkkkrl",
"l>kkkkkkkkkkkkkkkkkkkkkkkkkkkkkkkkkkkkj$lllllllllllllll                  lllllllllllllll$jkkkkkkkkkkkkkkkkkkkkkkkkkkkkkkkkkkkk>l",
"l4kkkkkkkkkkkkkkkkkkkkkkkkkkkkkkkkkkkkk0llllllllllllllll                llllllllllllllll8kkkkkkkkkkkkkkkkkkkkkkkkkkkkkkkkkkkkk4l",
"l2gkkkkkkkkkkkkkkkkkkkkkkkkkkkkkkkkkkkkd2llllllllllllllll              llllllllllllllllldkkkkkkkkkkkkkkkkkkkkkkkkkkkkkkkkkkkkg2l",
"lldkkkkkkkkkkkkkkkkkkkkkkkkkkkkkkkkkkkkkXllllllllllllllllll          llllllllllllllllll;kkkkkkkkkkkkkkkkkkkkkkkkkkkkkkkkkkkkkdll",
"llykkkkkkkkkkkkkkkkkkkkkkkkkkkkkkkkkkkkkd2llllllllllllllllllll    llllllllllllllllllll2skkkkkkkkkkkkkkkkkkkkkkkkkkkkkkkkkkkkkyll",
"ll6kkkkkkkkkkkkkkkkkkkkkkkkkkkkkkkkkkkkkk4llllllllllllllllllllllllllllllllllllllllllll4kkkkkkkkkkkkkkkkkkkkkkkkkkkkkkkkkkkkkk7ll",
"ll;kkkkkkkkkkkkkkkkkkkkkkkkkkkkkkkkkkkkkkg;llllllllllllllllllllllllllllllllllllllllll=gkkkkkkkkkkkkkkkkkkkkkkkkkkkkkkkkkkkkkk>ll",
"lllfkkkkkkkkkkkkkkkkkkkkkkkkkkkkkkkkkkkkkkpllllllllllllllllllllllllllllllllllllllllllakkkkkkkkkkkkkkkkkkkkkkkkkkkkkkkkkkkkkkf2ll",
"lllukkkkkkkkkkkkkkkkkkkkkkkkkkkkkkkkkkkkkkkqllllllllllllllllllllllllllllllllllllllll5kkkkkkkkkkkkkkkkkkkkkkkkkkkkkkkkkkkkkkkulll",
"lll2kkkkkkkkkkkkkkkkkkkkkkkkkkkkkkkkkkkkkkkj;llllllllllllllllllllllllllllllllllllll;jkkkkkkkkkkkkkkkkkkkkkkkkkkkkkkkkkkkkkkk2lll",
"lll;jkkkkkkkkkkkkkkkkkkkkkkkkkkkkkkkkkkkkkkkj5llllllllllllllllllllllllllllllllllll5jkkkkkkkkkkkkkkkkkkkkkkkkkkkkkkkkkkkkkkkj$lll",
"llllskkkkkkkkkkkkkkkkkkkkkkkkkkkkkkkkkkkkkkkkjOllllllllllllllllllllllllllllllllll;jkkkkkkkkkkkkkkkkkkkkkkkkkkkkkkkkkkkkkkkksllll",
"llll7kkkkkkkkkkkkkkkkkkkkkkkkkkkkkkkkkkkkkkkkkjqllllllllllllllllllllllllllllllllqjkkkkkkkkkkkkkkkkkkkkkkkkkkkkkkkkkkkkkkkkk7llll",
"llll$hkkkkkkkkkkkkkkkkkkkkkkkkkkkkkkkkkkkkkkkkkka%llllllllllllllllllllllllllll4akkkkkkkkkkkkkkkkkkkkkkkkkkkkkkkkkkkkkkkkkkh$llll",
"lllllakkkkkkkkkkkkkkkkkkkkkkkkkkkkkkkkkkkkkkkkkkkh;2llllllllllllllllllllllll2;hkkkkkkkkkkkkkkkkkkkkkkkkkkkkkkkkkkkkkkkkkkkalllll",
"lllll;kkkkkkkkkkkkkkkkkkkkkkkkkkkkkkkkkkkkkkkkkkkkkf42llllllllllllllllllll24fkkkkkkkkkkkkkkkkkkkkkkkkkkkkkkkkkkkkkkkkkkkkk;lllll",
"llllllfkkkkkkkkkkkkkkkkkkkkkkkkkkkkkkkkkkkkkkkkkkkkkkfq=llllllllllllllll=qfkkkkkkkkkkkkkkkkkkkkkkkkkkkkkkkkkkkkkkkkkkkkkkfllllll",
"llllll4kkkkkkkkkkkkkkkkkkkkkkkkkkkkkkkkkkkkkkkkkkkkkkkkkdq542llllll245qdkkkkkkkkkkkkkkkkkkkkkkkkkkkkkkkkkkkkkkkkkkkkkkkkk4llllll",
"llllll;hkkkkkkkkkkkkkkkkkkkkkkkkkkkkkkkkkkkkkkkkkkkkkkkkkkkkgffffffgkkkkkkkkkkkkkkkkkkkkkkkkkkkkkkkkkkkkkkkkkkkkkkkkkkkkh;llllll",
"lllllllwkkkkkkkkkkkkkkkkkkkkkkkkkkkkkkkkkkkkkkkkkkkkkkkkkkkkkkkkkkkkkkkkkkkkkkkkkkkkkkkkkkkkkkkkkkkkkkkkkkkkkkkkkkkkkkkkqlllllll",
"lllllll;hkkkkkkkkkkkkkkkkkkkkkkkkkkkkkkkkkkkkkkkkkkkkkkkkkkkkkkkkkkkkkkkkkkkkkkkkkkkkkkkkkkkkkkkkkkkkkkkkkkkkkkkkkkkkkkh;lllllll",
"llllllllqkkkkkkkkkkkkkkkkkkkkkkkkkkkkkkkkkkkkkkkkkkkkkkkkkkkkkkkkkkkkkkkkkkkkkkkkkkkkkkkkkkkkkkkkkkkkkkkkkkkkkkkkkkkkkk6llllllll",
"llllllll&fkkkkkkkkkkkkkkkkkkkkkkkkkkkkkkkkkkkkkkkkkkkkkkkkkkkkkkkkkkkkkkkkkkkkkkkkkkkkkkkkkkkkkkkkkkkkkkkkkkkkkkkkkkkkf&llllllll",
"lllllllll4kkkkkkkkkkkkkkkkkkkkkkkkkkkkkkkkkkkkkkkkkkkkkkkkkkkkkkkkkkkkkkkkkkkkkkkkkkkkkkkkkkkkkkkkkkkkkkkkkkkkkkkkkkkk4lllllllll",
"llllllllllskkkkkkkkkkkkkkkkkkkkkkkkkkkkkkkkkkkkkkkkkkkkkkkkkkkkkkkkkkkkkkkkkkkkkkkkkkkkkkkkkkkkkkkkkkkkkkkkkkkkkkkkkksllllllllll",
"llllllllllOjkkkkkkkkkkkkkkkkkkkkkkkkkkkkkkkkkkkkkkkkkkkkkkkkkkkkkkkkkkkkkkkkkkkkkkkkkkkkkkkkkkkkkkkkkkkkkkkkkkkkkkkkj=llllllllll",
"lllllllllll7kkkkkkkkkkkkkkkkkkkkkkkkkkkkkkkkkkkkkkkkkkkkkkkkkkkkkkkkkkkkkkkkkkkkkkkkkkkkkkkkkkkkkkkkkkkkkkkkkkkkkkkk7lllllllllll",
"lllllllllll&dkkkkkkkkkkkkkkkkkkkkkkkkkkkkkkkkkkkkkkkkkkkkkkkkkkkkkkkkkkkkkkkkkkkkkkkkkkkkkkkkkkkkkkkkkkkkkkkkkkkkkkd&lllllllllll",
"llllllllllllojkkkkkkkkkkkkkkkkkkkkkkkkkkkkkkkkkkkkkkkkkkkkkkkkkkkkkkkkkkkkkkkkkkkkkkkkkkkkkkkkkkkkkkkkkkkkkkkkkkkkj=llllllllllll",
"lllllllllllll;kkkkkkkkkkkkkkkkkkkkkkkkkkkkkkkkkkkkkkkkkkkkkkkkkkkkkkkkkkkkkkkkkkkkkkkkkkkkkkkkkkkkkkkkkkkkkkkkkkkk;lllllllllllll",
"llllllllllllllukkkkkkkkkkkkkkkkkkkkkkkkkkkkkkkkkkkkkkkkkkkkkkkkkkkkkkkkkkkkkkkkkkkkkkkkkkkkkkkkkkkkkkkkkkkkkkkkkkullllllllllllll",
"llllllllllllll2dkkkkkkkkkkkkkkkkkkkkkkkkkkkkkkkkkkkkkkkkkkkkkkkkkkkkkkkkkkkkkkkkkkkkkkkkkkkkkkkkkkkkkkkkkkkkkkkkd2llllllllllllll",
"lllllllllllllll>gkkkkkkkkkkkkkkkkkkkkkkkkkkkkkkkkkkkkkkkkkkkkkkkkkkkkkkkkkkkkkkkkkkkkkkkkkkkkkkkkkkkkkkkkkkkkkkg>lllllllllllllll",
"llllllllllllllllXjkkkkkkkkkkkkkkkkkkkkkkkkkkkkkkkkkkkkkkkkkkkkkkkkkkkkkkkkkkkkkkkkkkkkkkkkkkkkkkkkkkkkkkkkkkkkjXllllllllllllllll",
"lllllllllllllllll4jkkkkkkkkkkkkkkkkkkkkkkkkkkkkkkkkkkkkkkkkkkkkkkkkkkkkkkkkkkkkkkkkkkkkkkkkkkkkkkkkkkkkkkkkkkj4lllllllllllllllll",
"llllllllllllllllll;jkkkkkkkkkkkkkkkkkkkkkkkkkkkkkkkkkkkkkkkkkkkkkkkkkkkkkkkkkkkkkkkkkkkkkkkkkkkkkkkkkkkkkkkkj;llllllllllllllllll",
"lllllllllllllllllll@jkkkkkkkkkkkkkkkkkkkkkkkkkkkkkkkkkkkkkkkkkkkkkkkkkkkkkkkkkkkkkkkkkkkkkkkkkkkkkkkkkkkkkkj@lllllllllllllllllll",
"llllllllllllllllllll;jkkkkkkkkkkkkkkkkkkkkkkkkkkkkkkkkkkkkkkkkkkkkkkkkkkkkkkkkkkkkkkkkkkkkkkkkkkkkkkkkkkkkj;llllllllllllllllllll",
"lllllllllllllllllllll4jkkkkkkkkkkkkkkkkkkkkkkkkkkkkkkkkkkkkkkkkkkkkkkkkkkkkkkkkkkkkkkkkkkkkkkkkkkkkkkkkkkj4lllllllllllllllllllll",
"llllllllllllllllllllllXgkkkkkkkkkkkkkkkkkkkkkkkkkkkkkkkkkkkkkkkkkkkkkkkkkkkkkkkkkkkkkkkkkkkkkkkkkkkkkkkkgXllllllllllllllllllllll",
"lllllllllllllllllllllll;dkkkkkkkkkkkkkkkkkkkkkkkkkkkkkkkkkkkkkkkkkkkkkkkkkkkkkkkkkkkkkkkkkkkkkkkkkkkkkkd>lllllllllllllllllllllll",
"llllllllllllllllllllllll>ukkkkkkkkkkkkkkkkkkkkkkkkkkkkkkkkkkkkkkkkkkkkkkkkkkkkkkkkkkkkkkkkkkkkkkkkkkkku2llllllllllllllllllllllll",
"llllllllllllllllllllllllll;jkkkkkkkkkkkkkkkkkkkkkkkkkkkkkkkkkkkkkkkkkkkkkkkkkkkkkkkkkkkkkkkkkkkkkkkkj;llllllllllllllllllllllllll",
"lllllllllllllllllllllllllll=dkkkkkkkkkkkkkkkkkkkkkkkkkkkkkkkkkkkkkkkkkkkkkkkkkkkkkkkkkkkkkkkkkkkkkkdOlllllllllllllllllllllllllll",
"llllllllllllllllllllllllllll&7jkkkkkkkkkkkkkkkkkkkkkkkkkkkkkkkkkkkkkkkkkkkkkkkkkkkkkkkkkkkkkkkkkkj6&llllllllllllllllllllllllllll",
"llllllllllllllllllllllllllllll$skkkkkkkkkkkkkkkkkkkkkkkkkkkkkkkkkkkkkkkkkkkkkkkkkkkkkkkkkkkkkkkksOllllllllllllllllllllllllllllll",
"llllllllllllllllllllllllllllllll4fkkkkkkkkkkkkkkkkkkkkkkkkkkkkkkkkkkkkkkkkkkkkkkkkkkkkkkkkkkkkf4llllllllllllllllllllllllllllllll",
"lllllllllllllllllllllllllllllllllo6hkkkkkkkkkkkkkkkkkkkkkkkkkkkkkkkkkkkkkkkkkkkkkkkkkkkkkkkkhq&lllllllllllllllllllllllllllllllll",
"lllllllllllllllllllllllllllllllllll;whkkkkkkkkkkkkkkkkkkkkkkkkkkkkkkkkkkkkkkkkkkkkkkkkkkkkhw;lllllllllllllllllllllllllllllllllll",
"lllllllllllllllllllllllllllllllllllll;4dkkkkkkkkkkkkkkkkkkkkkkkkkkkkkkkkkkkkkkkkkkkkkkkkf4;lllllllllllllllllllllllllllllllllllll",
"llllllllllllllllllllllllllllllllllllllll;ahkkkkkkkkkkkkkkkkkkkkkkkkkkkkkkkkkkkkkkkkkkhp;llllllllllllllllllllllllllllllllllllllll",
"llllllllllllllllllllllllllllllllllllllllll$7sjkkkkkkkkkkkkkkkkkkkkkkkkkkkkkkkkkkkkhs7>llllllllllllllllllllllllllllllllllllllllll",
"lllllllllllllllllllllllllllllllllllllllllllll>2ufkkkkkkkkkkkkkkkkkkkkkkkkkkkkkkfu2;lllllllllllllllllllllllllllllllllllllllllllll",
"lllllllllllllllllllllllllllllllllllllllllllllllll=7ydgkkkkkkkkkkkkkkkkkkkkgdy7;lllllllllllllllllllllllllllllllllllllllllllllllll",
"lllllllllllllllllllllllllllllllllllllllllllllllllllll44;r8uidffffffdiu8r>42lllllllllllllllllllllllllllllllllllllllllllllllllllll",
"llllllllllllllllllllllllllllllllllllllllllllllllllllllllllllllllllllllllllllllllllllllllllllllllllllllllllllllllllllllllllllllll"
};
